<svg xmlns="http://www.w3.org/2000/svg" width="47.414" height="47.414" viewBox="0 0 47.414 47.414">
  <g id="Gruppe_193" data-name="Gruppe 193" transform="translate(-384.293 -3417.293)">
    <g id="Gruppe_191" data-name="Gruppe 191" transform="translate(0 95)">
      <g id="Gruppe_189" data-name="Gruppe 189" transform="translate(-799.223 3205.805)">
        <g id="Gruppe_185" data-name="Gruppe 185" transform="translate(1184.223 117.195)">
          <path id="Pfad_205" data-name="Pfad 205" d="M1184.223,140.2l23-23,23,23-23,23Z" transform="translate(-1184.223 -117.195)" fill="#fafafa" stroke="#999" stroke-miterlimit="10.485" stroke-width="1"/>
          <path id="Pfad_206" data-name="Pfad 206" d="M1184.223,140.2l23-23,23,23-23,23Z" transform="translate(-1184.223 -117.195)" fill="none" stroke="#999" stroke-miterlimit="10.485" stroke-width="0.42"/>
        </g>
      </g>
      <g id="Ellipse_6" data-name="Ellipse 6" transform="translate(392 3330)" fill="none" stroke="#999" stroke-width="0.5">
        <circle cx="16" cy="16" r="16" stroke="none"/>
        <circle cx="16" cy="16" r="15.75" fill="none"/>
      </g>
      <g id="Ellipse_7" data-name="Ellipse 7" transform="translate(394 3332)" fill="none" stroke="#999" stroke-width="0.5">
        <circle cx="14" cy="14" r="14" stroke="none"/>
        <circle cx="14" cy="14" r="13.75" fill="none"/>
      </g>
    </g>
    <g id="Gruppe_192" data-name="Gruppe 192" transform="translate(-554.637 3541.957)">
      <path id="Pfad_207" data-name="Pfad 207" d="M962.416-89.919q3.766,0,7.531,0a.173.173,0,0,0,.2-.145q2.321-7.158,4.652-14.314a.175.175,0,0,0-.08-.239q-6.079-4.41-12.155-8.825c-.179-.13-.115-.132-.283-.009q-6.087,4.419-12.174,8.838a.172.172,0,0,0-.076.232q2.332,7.16,4.656,14.323a.165.165,0,0,0,.189.139Q958.645-89.922,962.416-89.919Z" transform="translate(0 -0.495)" fill="none" stroke="#999" stroke-miterlimit="10" stroke-width="0.5"/>
    </g>
  </g>
</svg>
