<svg xmlns="http://www.w3.org/2000/svg" width="44.996" height="44.997" viewBox="0 0 44.996 44.997">
  <g id="Gruppe_179" data-name="Gruppe 179" transform="translate(-1255.14 -116.195)">
    <path id="Pfad_198" data-name="Pfad 198" d="M1272.846,117.2a21.5,21.5,0,1,1-21.5,21.5A21.56,21.56,0,0,1,1272.846,117.2Z" transform="translate(4.792 0)" fill="#fafafa"/>
    <path id="Pfad_199" data-name="Pfad 199" d="M1272.846,117.2a21.5,21.5,0,1,1-21.5,21.5A21.56,21.56,0,0,1,1272.846,117.2Z" transform="translate(4.792 0)" fill="none" stroke="#f96" stroke-miterlimit="10.485" stroke-width="2"/>
    <g id="Gruppe_178" data-name="Gruppe 178" transform="translate(1259.727 120.782)">
      <path id="Pfad_200" data-name="Pfad 200" d="M1271.359,119.3a17.918,17.918,0,1,1-17.911,17.911A17.966,17.966,0,0,1,1271.359,119.3Z" transform="translate(-1253.448 -119.295)" fill="none" stroke="#f96" stroke-miterlimit="10.485" stroke-width="2"/>
    </g>
  </g>
</svg>
