<svg xmlns="http://www.w3.org/2000/svg" width="100" height="100" viewBox="0 0 100 100">
  <g id="Gruppe_20193" data-name="Gruppe 20193" transform="translate(19593.561 14796.528)">
    <g id="Gruppe_20191" data-name="Gruppe 20191" transform="translate(40 139)">
      <rect id="Rechteck_19051" data-name="Rechteck 19051" width="100" height="100" transform="translate(-19633.561 -14935.528)" fill="#fff"/>
    </g>
    <g id="Gruppe_20192" data-name="Gruppe 20192" transform="translate(-20911.162 -14882.438)">
      <path id="Pfad_203" data-name="Pfad 203" d="M1412.7,110.9a3.982,3.982,0,0,1,3.972,3.973v42.565a3.98,3.98,0,0,1-3.972,3.963h-90.258a3.98,3.98,0,0,1-3.973-3.963V114.876a3.982,3.982,0,0,1,3.973-3.973Z" transform="translate(0 0)" fill="#fafafa"/>
      <path id="Pfad_204" data-name="Pfad 204" d="M1412.7,110.9a3.982,3.982,0,0,1,3.972,3.973v42.565a3.98,3.98,0,0,1-3.972,3.963h-90.258a3.98,3.98,0,0,1-3.973-3.963V114.876a3.982,3.982,0,0,1,3.973-3.973Z" transform="translate(0 0)" fill="none" stroke="#999" stroke-miterlimit="10.485" stroke-width="1"/>
      <g id="Gruppe_182" data-name="Gruppe 182" transform="translate(1334.163 131.499)">
        <text id="Subprocess" transform="translate(-0.001 9.938)" fill="#606060" font-size="13" font-family="Ubuntu" style="isolation: isolate"><tspan x="0" y="0">Subprocess</tspan></text>
      </g>
    </g>
  </g>
</svg>
